/* XPM */
static char * bitmap_logo_xpm[] = {
"167 41 90 1",
" 	c #1700FF",
".	c #000DFF",
"+	c #3A00FE",
"@	c #4F00FD",
"#	c #181FFF",
"$	c #6000FC",
"%	c #6E03FA",
"&	c #2B28FF",
"*	c #8100FA",
"=	c #7807F8",
"-	c #8C00F9",
";	c #4C25FF",
">	c #9701F8",
",	c #3135FF",
"'	c #A600F7",
")	c #AF00F7",
"!	c #B702F5",
"~	c #BF00F7",
"{	c #5D33FE",
"]	c #C600F5",
"^	c #3F43FF",
"/	c #CE00F4",
"(	c #D600F7",
"_	c #DC00F4",
":	c #E300F3",
"<	c #EB00F5",
"[	c #F100E6",
"}	c #F301DF",
"|	c #8C30FE",
"1	c #F000F2",
"2	c #703FFE",
"3	c #F300ED",
"4	c #5450FF",
"5	c #9431FB",
"6	c #A62AFA",
"7	c #694BFE",
"8	c #5A5BFF",
"9	c #AD32FA",
"0	c #8E45FB",
"a	c #9C3EFD",
"b	c #675EFF",
"c	c #B23EFA",
"d	c #A849FA",
"e	c #6E69FF",
"f	c #9E56FC",
"g	c #8F5FFE",
"h	c #F035F5",
"i	c #7475FF",
"j	c #BB53FA",
"k	c #F440F3",
"l	c #B661FB",
"m	c #F545EB",
"n	c #C75AF8",
"o	c #9C72FE",
"p	c #8383FF",
"q	c #C969FB",
"r	c #C173FC",
"s	c #9A88FE",
"t	c #9291FF",
"u	c #B082FE",
"v	c #F66CF0",
"w	c #D282FC",
"x	c #A19FFF",
"y	c #F977ED",
"z	c #B696FE",
"A	c #C291FF",
"B	c #D28FFC",
"C	c #ABA7FF",
"D	c #B2AFFF",
"E	c #F990F5",
"F	c #D6A1FD",
"G	c #C7ACFF",
"H	c #E0ABFD",
"I	c #C4C0FF",
"J	c #FAA6F9",
"K	c #DDBAFD",
"L	c #FBAFF6",
"M	c #D2CCFF",
"N	c #FBBCF8",
"O	c #D8D5FF",
"P	c #F4CBFC",
"Q	c #E9D3FE",
"R	c #E2E2FF",
"S	c #FEDCFC",
"T	c #F4E4FF",
"U	c #EEEAFF",
"V	c #FFEFFD",
"W	c #FAF3FE",
"X	c #FAFAFF",
"Y	c #FEFFFC",
"____::::::::11<1111<<1<::::::_____(////]]]]]~!!!))))))''''>>>>>-----*****==%%%%$$$$$$@$@@@@@+++++++++++                                                                ",
"___::::11111::1<:1:11:1111:::::______////]]!]]~!~!!)))'''>'''>>>---=--===%%=%%%%%%$$$$@$$@@@@@@+++++ . +++..   .  ...                                                  ",
"_::::::::111111313111:1::1:::::__/_///_//]/!]]!)!)!)')'''>'>>>>>>---=-****%=%%%%%%$$$$#$@@@+@@@@+++++++..++.   ..                                                      ",
":::::1113::11131111113111:1:::::/:___/////]]]!]]!!!'!'''''>>'>>>-----=-**=*%=%%%$$$$%$$#$$+$++++++++++.++  + .      .                                                  ",
"_:_:::::131111331313111111:[::__://_/////]]!/!!]!!!!'!'6'''>>>>>>|---===*=*%=%%%%;%$;$$$$;+$++@+++++.+..+  +    .   .                                                  ",
":::::1111113331[3[3331[1111::h:::h/:/_/]///!]]!!!!!'!'''>''6>>>----=--**==%=%%%%%$$$$$@@+$@+$+++++++.+++.+. +  .                                                       ",
":::[:1111313[3mENPNEm11[:111YYYY_____/_//YYY/!]!!!!!'!''''>>'>>>>----*-**=%==%%%$=$$@$$@@@@;+@@+++++.+ +.+.      .  .                                                  ",
"h:::1:11111[kSYYSEXXXN313111:YYY_____/_/Y/]]Y!]!!!!!'!!''>'>6>>>----=*=***==%=$=$$$=$$$;$@++@@@+++++ +  +   +  .. ..                                                   ",
"::::1:1133[[UYYX}}NYXYL111:3::YYY:_:/_//Y//]Y]]!!!!!'!6'''6'>'>>>>---*==*===$=$$=$$$;$$$+;$+++@@+++++.+ .+...                                                          ",
"::1111131[1vYXYP}[EYYXX[[1[<11XYY_h:/__//YYY]]!]!!!!)'!)'>''>'>>>>----***=%==%=%;%$$$$$$+$$$#+++++++++ + .+ +                                                          ",
"::::1113133}XXXy}}LYYXXh[111<1XYYX_/:/_/Y]]]Y]!]!!!!''''''''>>|>>=>---=-*=%=%%%%%%$%$$$$$+++$$++#@+++.++  .   .                                                        ",
":::11111[[[[}EE}}}VXYYS331111:1XYY::__/_Y//]Y/!]!!!!)!)'''''>'>>>>----*=**%%=%%%$;$$$$#$;$$$+$+++++++ ++ .   . ..                                                      ",
"1:1:1111[3[[}}}}}LYYYWm333111:1XYY_:/_///YYY]]]!]!!!)!''''>'>>>>>>=>=-=-**==%%%=$=$$;$$$$+#++$+++++++++ ++ .     .                                                     ",
"::1111333[[}}}}}NYYYJ}3[[33111:YXY::_/_////!]/!]9!!!''9''''>'>>->>>->=*=*====%$=$$$$$$$+$+$;++$++++++ + + +                                                            ",
"::::1111[3[}}}mWYXVm}}[3[11111:YYY_/:__////]]]!]!!!!!!'''>''>'5->--=>--==*=%=%=$==$$$$$$+$++$++$+++++++  ++    .                                                       ",
"::11:111[[[[}mYYYYm}}[[[3111::1YXY[/___/////!]]]!!!'!'!9'>''>>>5->>-==-=*====$=$$$=$$$$$$$$+#$+++++.++++  + .   .                                                      ",
"1::1:11113[[}EYXYY}[[[[[3[111::YXX_:/_/_///]/!]!!!!!!'''''''>'>>-=>->=-=-==%==$=$=$$$$$+$+$++++$#+++.++ ++   .                                                         ",
"::1:1<11[[[[[yYYXYNmm[331111111XYY::_/_/////]]/!]!!'!!!!6>''>>>>>>---**=**=$=$==$$=$$$$$$+$+$++++#+++ +  ++     . .                                                    ",
"::1:111111[[[[SYYYYYTk[[111:1:YYYY__/://///]9/!!!!!!!'''''''>'>>>----*-*======$$%$+=+$&$+$$$+#$+++++.+.++.       .                                                     ",
":::1:1111[[3[[[yLNJm[[113113::YXY:/h/://YYY/]]]]!!'!!'''''''>'>>>>----=**==rGd$=$=$$$$$$++$+$+++++++.++ +#{^^&.                                         iD^            ",
":::::1:<11133[3333[[[3311:111:YXY__////Y]]]Y!]!!!]!!OYj'''>5dYY5>=>=-jYK=*=MY5=$$$$&$$+$$++$++$++++++.+4IYXYXYUC4.                              8e.     OX,            ",
":::11:111131111kNSE1111111:1:YXY_:/[/_/Y//XY]!]]6!!!PYn''''>KXY9>->-=QY5===YU=${$=$$=$$&$$+$++$+++++++DYXDsotIYYO                              .WX     .YU             ",
":::_:11:<111[33WXYYE[<1111:1XYYY:__/:///YX]Y]!]!!!!'PWl'>''!YWY9--=>dYK*==dXK=$=$$$$$$$+$&+$++++++++ zYM;  ...#tC.                             ,YI.    ^XI             ",
"/::::::11:1111kXYXXP11<1::1:YYY_:/://///]]]Y]!!!!!'!KYq'''>HUHYd->>=KYd=*=uYu$=00{=$$$$$+$+$+$++++++#XX;+ +     .                     ,^#      iYp     pXp .,^#        ",
"::_::::X1<1<:1hXYYYL11111::YXXY__:/://////X]!]!!!!!!HYq'''6YBBXd>-=dYM*=*=KY0uWYYYC=$$$YY++$+++$RY^+7YX  +       ..WW.      OX,  DX4pUYXXC   .XXYXXXXi.IX4pUYYXC       ",
"__:_::1YXY:1111JYYWk1::::YYXYY_:_:/_////XY!]]]!!!!'!FYr''>FW>BYj>>-HYd*===UYVUGuGYWo$++MY2$++$+tYz++7XY^ ++    .  .OX,     tYt  .UYRXCpDXY8  &CXXCCxC&.WYRXCpDYXe      ",
"____:_:YXYX::1<1hm::1111YYYXY:_///_/_///]]]!!!]!!!!'BYw'''YB>wXj=>aYQ-*==5YXz=%=$GYz$$$CYg++$+2YO$ +#WXWs4# +   .  xY8    ,XR.  ,XYt. . DYt.  #YR   ..,YXt..  DYx      ",
"_____::YYXYYYY::<:11:XXXXXYY/:::_/_//]//]]]/!!!!!!!!BYw'>BY9-rYl-=FYl=*=*oWz%=$%=uYs$$$oYx$+$+OY7++++2UYXYYRx^.  . iYt   .OY^   eXt    .pYp   eXx     iXt    .tYp      ",
"/______::YYYXYYYYXYYYYYYYX_:__/__/////]]]]9]!!!!!'''BYB''WH>>rYl>5YO-*=*=HYf=$%$$GYg$$+0WM$++sYz+++ +++eGOYXYYC. . ^XM.  pXx    CY8     DY8.  xXe.    CY8     CY8.     ",
"/_/_____::_XYYYYYYXXYYXY_:__:__/_//Y/]/]!Y]]!!!!!!'!rXF>wY9>>lYr-BYl-=*==RY=%$%%=OY{$$+$YW$+{WR; ++++ + ..+4IXYe   .YU  &XR.  . RX#     RY#   OX&     RX#    .RY#      ",
"/_/__/::_::::YYYYYYXYY_:_:__/_/_//YY//]]Y!Y!!!!'!'!'qYF'VK>>>lYr5WT=*-==-YO===$${YQ%+$+$OY{$MY2++#  +# ++  . OXC#   RX&.IY4    #YR     #XR   .YU.    #YR     #XU       ",
"///___/____________:__:___/__////Y]Y]/!Y!!!Y!!!!'!''qYFqYc>>>dYuBYr-==*=fYG%%%%$fYG$$$$$CYgoXC$+++++++  + + .CYt  . CY8iXx     8XC     8YC   4YD     8XC     8YC       ",
"///////_/:___:::::_:___/__/_//////]X/!/Y!]!Y!!'!'!''nYKTP>>>>jYBUU-=-=*=zYl=$$=$zXo$&$+$uXCVR$+#++ ^+ ++ .  +RX4    pXCXR.     tXe.    tXi   pXp.    tYe     tYe.      ",
"////_/_/_/________:/__://__//_//]/]Y/]!X]!'Y!!!'!'''jYWYj>>--dYWYr-=*=*=MY2%=$%$MY2$$$$+7YYY7+++++;Wz&. +  +DYD     ^YYY4     .MY&     MY,   xYt    .MX,     OY,       ",
"/////_/_////_/_/_//__//:////////]/]Y!]!!Y!Y'!!'''!''cYXQ>>'--9XYU--=**==XU=%$=$%YU$$+++$=YXC$$++++bYWYItppGWXI.   . #XXC .     XW..   .XW.   iXXtix,.YU     .XX        ",
"c//////_/_//_//_/__/://_/h//////]XYXYY!!!Y!!'!!'''''cXYl'>>>>5XYw==*=**0YK%=$%$0YI$$$$$+;YU$+++++++bIWYYXYXMb .     #YR.      ^XI     ^YI    .IYYYX.^YI     ^XI        ",
"/]//c/////_//_/_//////_/9//////9/]]!!]!!!)!!!!''''''''>>>>=>->-==--=*===%=$%$$%$+%$+$+$+IYg+#++++ +++ ;^7{#     .   IY8                        #,&                     ",
"]]//////////////////_/////////]]]]]]!]!!]'!''!'!'''>'>>>>>>>----====**=%$=$=$$%$$$$&$+$oYG++++++++ + ++     .      iYC                                                 ",
"!]!/!//]/////////////////9/9/9/!!!!]!!!!!!'!''''''>'>'>'>>>=>=----=*=$===%$$=$$$$$$$+${WU;+++++++ + +         .   &XU#                                                 ",
"!/!/]]/9/////c/////////////]/]]]/!!]!!!!!!!'!''''''>'>>>>>>>>--===*%=%%%$==$$=$$$$$+$$MYg$++++++++ +++      .   . MY8                                                  ",
"!]!!9]]/]9/]/_/c//9//9/]/!]]]]!!!!!!!!!!'''!'''''>'>>>>>>-=>=--=-=*=*%=%=$$$$$$&$$$&$;og++++$+++ ++ .+ +     .  .#ee                                                   "};
